<svg xmlns="http://www.w3.org/2000/svg" viewBox="0 0 100 100"><defs><radialGradient id="strg" cx="40%" cy="40%" r="60%"><stop offset="0%" stop-color="#fb7185"/><stop offset="60%" stop-color="#e11d48"/><stop offset="100%" stop-color="#9f1239"/></radialGradient></defs><path d="M35 20 C35 12 40 10 43 7" stroke="#65a30d" stroke-width="3" fill="none" stroke-linecap="round"/><path d="M25 28 C30 20 40 26 50 24 C60 26 70 20 75 28 C65 32 60 27 50 30 C40 27 35 32 25 28 Z" fill="#4ade80" stroke="#16a34a" stroke-width="1.5"/><path d="M22 34 C16 48 24 75 46 92 C48 94 52 94 54 92 C76 75 84 48 78 34 C72 26 28 26 22 34 Z" fill="url(#strg)" stroke="#be123c" stroke-width="2"/><g fill="#fef08a"><circle cx="34" cy="44" r="1.5"/><circle cx="50" cy="42" r="1.5"/><circle cx="66" cy="44" r="1.5"/><circle cx="42" cy="56" r="1.5"/><circle cx="58" cy="56" r="1.5"/><circle cx="32" cy="66" r="1.5"/><circle cx="48" cy="70" r="1.5"/><circle cx="64" cy="66" r="1.5"/><circle cx="50" cy="82" r="1.5"/></g></svg>