<svg xmlns="http://www.w3.org/2000/svg" viewBox="0 0 100 100"><defs><linearGradient id="cg" x1="0%" y1="0%" x2="100%" y2="100%"><stop offset="0%" stop-color="#fdba74"/><stop offset="50%" stop-color="#f97316"/><stop offset="100%" stop-color="#c2410c"/></linearGradient><linearGradient id="clg" x1="0%" y1="100%" x2="0%" y2="0%"><stop offset="0%" stop-color="#15803d"/><stop offset="100%" stop-color="#4ade80"/></linearGradient></defs><path d="M50 30 Q35 15 32 5 Q45 10 49 26 Z" fill="url(#clg)"/><path d="M50 30 Q50 10 50 2 Q55 10 52 26 Z" fill="url(#clg)"/><path d="M50 30 Q65 15 68 5 Q55 10 51 26 Z" fill="url(#clg)"/><path d="M34 32 C34 26 66 26 66 32 C66 38 56 86 51 96 C49 98 48 98 47 96 C42 86 34 38 34 32 Z" fill="url(#cg)" stroke="#c2410c" stroke-width="1.5"/><path d="M40 42 Q46 44 48 43" fill="none" stroke="#ea580c" stroke-width="2" stroke-linecap="round"/><path d="M52 54 Q58 56 61 54" fill="none" stroke="#ea580c" stroke-width="2" stroke-linecap="round"/><path d="M42 66 Q47 68 49 67" fill="none" stroke="#ea580c" stroke-width="2" stroke-linecap="round"/><path d="M48 78 Q52 80 54 79" fill="none" stroke="#ea580c" stroke-width="1.5" stroke-linecap="round"/><path d="M39 36 Q42 55 45 70" fill="none" stroke="#ffffff" stroke-width="2" opacity="0.45" stroke-linecap="round"/></svg>