<svg xmlns="http://www.w3.org/2000/svg" viewBox="0 0 100 100"><defs><linearGradient id="rktg" x1="0%" y1="0%" x2="100%" y2="100%"><stop offset="0%" stop-color="#f8fafc"/><stop offset="70%" stop-color="#e2e8f0"/><stop offset="100%" stop-color="#94a3b8"/></linearGradient></defs><polygon points="40,74 50,96 60,74" fill="#f97316"/><polygon points="44,74 50,88 56,74" fill="#fde047"/><path d="M26 62 L14 74 L30 76 Z" fill="#ef4444"/><path d="M74 62 L86 74 L70 76 Z" fill="#ef4444"/><path d="M50 8 C34 26 32 60 32 74 L68 74 C68 60 66 26 50 8 Z" fill="url(#rktg)" stroke="#64748b" stroke-width="2"/><path d="M50 8 C42 16 38 24 38 30 L62 30 C62 24 58 16 50 8 Z" fill="#ef4444"/><circle cx="50" cy="46" r="10" fill="#38bdf8" stroke="#0284c7" stroke-width="2.5"/><circle cx="48" cy="44" r="3" fill="#ffffff" opacity="0.6"/></svg>